<svg width="200" height="200" viewBox="0 0 200 200" fill="none" xmlns="http://www.w3.org/2000/svg">
<rect x="24.465" y="53.0543" width="109" height="140" rx="15" transform="rotate(-20 24.465 53.0543)" fill="#888888" stroke="black" stroke-width="10"/>
<rect x="45" y="30" width="109" height="140" rx="15" fill="white" stroke="black" stroke-width="10"/>
<path d="M68.91 68.12C68.71 67.64 68.44 67.03 68.1 66.29C67.78 65.55 67.43 64.75 67.05 63.89C66.67 63.03 66.26 62.15 65.82 61.25C65.4 60.33 65 59.47 64.62 58.67C64.24 57.85 63.88 57.12 63.54 56.48C63.22 55.84 62.96 55.35 62.76 55.01C62.54 57.37 62.36 59.93 62.22 62.69C62.08 65.43 61.96 68.2 61.86 71H59.01C59.09 69.2 59.18 67.39 59.28 65.57C59.38 63.73 59.49 61.93 59.61 60.17C59.75 58.39 59.89 56.66 60.03 54.98C60.19 53.3 60.36 51.71 60.54 50.21H63.09C63.63 51.09 64.21 52.13 64.83 53.33C65.45 54.53 66.07 55.79 66.69 57.11C67.31 58.41 67.91 59.72 68.49 61.04C69.07 62.34 69.6 63.53 70.08 64.61C70.56 63.53 71.09 62.34 71.67 61.04C72.25 59.72 72.85 58.41 73.47 57.11C74.09 55.79 74.71 54.53 75.33 53.33C75.95 52.13 76.53 51.09 77.07 50.21H79.62C80.3 56.91 80.81 63.84 81.15 71H78.3C78.2 68.2 78.08 65.43 77.94 62.69C77.8 59.93 77.62 57.37 77.4 55.01C77.2 55.35 76.93 55.84 76.59 56.48C76.27 57.12 75.92 57.85 75.54 58.67C75.16 59.47 74.75 60.33 74.31 61.25C73.89 62.15 73.49 63.03 73.11 63.89C72.73 64.75 72.37 65.55 72.03 66.29C71.71 67.03 71.45 67.64 71.25 68.12H68.91ZM85.7128 71V50.21H98.4028V52.7H88.6228V58.88H97.3228V61.31H88.6228V68.51H99.1528V71H85.7128ZM117.101 71C116.661 70.26 116.151 69.43 115.571 68.51C115.011 67.59 114.401 66.64 113.741 65.66C113.081 64.66 112.391 63.65 111.671 62.63C110.971 61.61 110.271 60.63 109.571 59.69C108.871 58.73 108.191 57.83 107.531 56.99C106.871 56.15 106.261 55.41 105.701 54.77V71H102.851V50.21H105.161C106.101 51.21 107.101 52.38 108.161 53.72C109.241 55.04 110.301 56.41 111.341 57.83C112.401 59.23 113.391 60.61 114.311 61.97C115.251 63.33 116.041 64.54 116.681 65.6V50.21H119.531V71H117.101ZM132.418 71.45C131.058 71.45 129.878 71.24 128.878 70.82C127.878 70.4 127.058 69.83 126.418 69.11C125.778 68.37 125.298 67.5 124.978 66.5C124.678 65.5 124.528 64.42 124.528 63.26V50.21H127.438V62.93C127.438 65.01 127.898 66.52 128.818 67.46C129.738 68.4 130.938 68.87 132.418 68.87C133.158 68.87 133.828 68.76 134.428 68.54C135.048 68.3 135.578 67.94 136.018 67.46C136.458 66.98 136.798 66.37 137.038 65.63C137.278 64.87 137.398 63.97 137.398 62.93V50.21H140.308V63.26C140.308 64.42 140.148 65.5 139.828 66.5C139.528 67.5 139.048 68.37 138.388 69.11C137.748 69.83 136.928 70.4 135.928 70.82C134.948 71.24 133.778 71.45 132.418 71.45Z" fill="black"/>
<line x1="93" y1="87.5" x2="141" y2="87.5" stroke="black" stroke-width="5"/>
<line x1="93" y1="107.5" x2="141" y2="107.5" stroke="black" stroke-width="5"/>
<line x1="59" y1="127.5" x2="141" y2="127.5" stroke="black" stroke-width="5"/>
<line x1="59" y1="147.5" x2="141" y2="147.5" stroke="black" stroke-width="5"/>
<rect x="61.5" y="87.5" width="20" height="20" stroke="black" stroke-width="5"/>
<rect x="59" y="47" width="82" height="25" fill="black"/>
</svg>
